<svg width="42" height="42" viewBox="0 0 42 42" fill="none" xmlns="http://www.w3.org/2000/svg">
<path d="M3.5 21C3.5 14.4008 3.5 11.1002 5.551 9.051C7.60025 7 10.9008 7 17.5 7H24.5C31.0992 7 34.3997 7 36.449 9.051C38.5 11.1002 38.5 14.4008 38.5 21V24.5C38.5 31.0992 38.5 34.3997 36.449 36.449C34.3997 38.5 31.0992 38.5 24.5 38.5H17.5C10.9008 38.5 7.60025 38.5 5.551 36.449C3.5 34.3997 3.5 31.0992 3.5 24.5V21Z" stroke="#CE3502" stroke-width="2.625"/>
<path d="M12.25 7V4.375M29.75 7V4.375M4.375 15.75H37.625" stroke="#CE3502" stroke-width="2.625" stroke-linecap="round"/>
<path d="M31.5 29.75C31.5 30.2141 31.3156 30.6592 30.9874 30.9874C30.6593 31.3156 30.2141 31.5 29.75 31.5C29.2859 31.5 28.8407 31.3156 28.5126 30.9874C28.1844 30.6592 28 30.2141 28 29.75C28 29.2859 28.1844 28.8408 28.5126 28.5126C28.8407 28.1844 29.2859 28 29.75 28C30.2141 28 30.6593 28.1844 30.9874 28.5126C31.3156 28.8408 31.5 29.2859 31.5 29.75ZM31.5 22.75C31.5 23.2141 31.3156 23.6592 30.9874 23.9874C30.6593 24.3156 30.2141 24.5 29.75 24.5C29.2859 24.5 28.8407 24.3156 28.5126 23.9874C28.1844 23.6592 28 23.2141 28 22.75C28 22.2859 28.1844 21.8408 28.5126 21.5126C28.8407 21.1844 29.2859 21 29.75 21C30.2141 21 30.6593 21.1844 30.9874 21.5126C31.3156 21.8408 31.5 22.2859 31.5 22.75ZM22.75 29.75C22.75 30.2141 22.5656 30.6592 22.2374 30.9874C21.9092 31.3156 21.4641 31.5 21 31.5C20.5359 31.5 20.0908 31.3156 19.7626 30.9874C19.4344 30.6592 19.25 30.2141 19.25 29.75C19.25 29.2859 19.4344 28.8408 19.7626 28.5126C20.0908 28.1844 20.5359 28 21 28C21.4641 28 21.9092 28.1844 22.2374 28.5126C22.5656 28.8408 22.75 29.2859 22.75 29.75ZM22.75 22.75C22.75 23.2141 22.5656 23.6592 22.2374 23.9874C21.9092 24.3156 21.4641 24.5 21 24.5C20.5359 24.5 20.0908 24.3156 19.7626 23.9874C19.4344 23.6592 19.25 23.2141 19.25 22.75C19.25 22.2859 19.4344 21.8408 19.7626 21.5126C20.0908 21.1844 20.5359 21 21 21C21.4641 21 21.9092 21.1844 22.2374 21.5126C22.5656 21.8408 22.75 22.2859 22.75 22.75ZM14 29.75C14 30.2141 13.8156 30.6592 13.4874 30.9874C13.1592 31.3156 12.7141 31.5 12.25 31.5C11.7859 31.5 11.3408 31.3156 11.0126 30.9874C10.6844 30.6592 10.5 30.2141 10.5 29.75C10.5 29.2859 10.6844 28.8408 11.0126 28.5126C11.3408 28.1844 11.7859 28 12.25 28C12.7141 28 13.1592 28.1844 13.4874 28.5126C13.8156 28.8408 14 29.2859 14 29.75ZM14 22.75C14 23.2141 13.8156 23.6592 13.4874 23.9874C13.1592 24.3156 12.7141 24.5 12.25 24.5C11.7859 24.5 11.3408 24.3156 11.0126 23.9874C10.6844 23.6592 10.5 23.2141 10.5 22.75C10.5 22.2859 10.6844 21.8408 11.0126 21.5126C11.3408 21.1844 11.7859 21 12.25 21C12.7141 21 13.1592 21.1844 13.4874 21.5126C13.8156 21.8408 14 22.2859 14 22.75Z" fill="#CE3502"/>
</svg>
