<svg width="42" height="42" viewBox="0 0 42 42" fill="none" xmlns="http://www.w3.org/2000/svg">
<path d="M36.75 28.1575V19.4215C36.75 11.914 36.75 8.16375 34.4435 5.831C32.137 3.5 28.4235 3.5 21 3.5C13.5747 3.5 9.863 3.5 7.5565 5.831C5.25 8.16375 5.25 11.9175 5.25 19.4215V28.1592C5.25 33.5772 5.25 36.288 6.5345 37.471C7.147 38.0362 7.9205 38.3915 8.74475 38.486C10.472 38.6837 12.4898 36.8987 16.5235 33.3305C18.3085 31.7537 19.1993 30.9645 20.23 30.758C20.7375 30.653 21.2625 30.653 21.77 30.758C22.8025 30.9645 23.6932 31.7537 25.4765 33.3305C29.5102 36.8987 31.528 38.6837 33.2553 38.4842C34.0778 38.3915 34.853 38.0362 35.4655 37.471C36.75 36.288 36.75 33.5772 36.75 28.1575Z" stroke="#CE3403" stroke-width="2.625"/>
<path d="M26.25 10.5H15.75" stroke="#CE3403" stroke-width="2.625" stroke-linecap="round"/>
</svg>
