<svg width="15" height="15" viewBox="0 0 15 15" fill="none" xmlns="http://www.w3.org/2000/svg">
<g clip-path="url(#clip0_158_111)">
<path d="M7.49998 0.9375C9.24059 0.9375 10.9099 1.62895 12.1407 2.85975C13.3715 4.09054 14.0629 5.75986 14.0629 7.50047C14.0629 9.24108 13.3715 10.9104 12.1407 12.1412C10.9099 13.372 9.24059 14.0634 7.49998 14.0634C5.75937 14.0634 4.09006 13.372 2.85926 12.1412C1.62847 10.9104 0.937012 9.24108 0.937012 7.50047C0.937012 5.75986 1.62847 4.09054 2.85926 2.85975C4.09006 1.62895 5.75937 0.9375 7.49998 0.9375ZM8.48436 4.96688C8.97186 4.96688 9.36748 4.62844 9.36748 4.12687C9.36748 3.62531 8.97092 3.28688 8.48436 3.28688C7.99686 3.28688 7.60311 3.62531 7.60311 4.12687C7.60311 4.62844 7.99686 4.96688 8.48436 4.96688ZM8.65592 10.2422C8.65592 10.1419 8.69061 9.88125 8.67092 9.73312L7.90029 10.62C7.74092 10.7878 7.54123 10.9041 7.44748 10.8731C7.40495 10.8575 7.3694 10.8272 7.34723 10.7876C7.32506 10.7481 7.31773 10.702 7.32654 10.6575L8.61092 6.6C8.71592 6.08531 8.42717 5.61562 7.81498 5.55562C7.16904 5.55562 6.21842 6.21094 5.63998 7.0425C5.63998 7.14188 5.62123 7.38937 5.64092 7.5375L6.41061 6.64969C6.56998 6.48375 6.75561 6.36656 6.84936 6.39844C6.89555 6.41502 6.93339 6.44904 6.95478 6.49321C6.97616 6.53738 6.97938 6.58817 6.96373 6.63469L5.69061 10.6725C5.54342 11.145 5.82186 11.6081 6.49686 11.7131C7.49061 11.7131 8.07748 11.0738 8.65686 10.2422H8.65592Z" fill="black"/>
</g>
<defs>
<clipPath id="clip0_158_111">
<rect width="15" height="15" fill="white"/>
</clipPath>
</defs>
</svg>
