<svg width="42" height="42" viewBox="0 0 42 42" fill="none" xmlns="http://www.w3.org/2000/svg">
<g clip-path="url(#clip0_157_67)">
<path d="M25.0527 15.921C24.8117 15.2383 24.365 14.6472 23.7739 14.2291C23.1828 13.8111 22.4766 13.5867 21.7527 13.587H19.0437C18.2708 13.583 17.5239 13.8656 16.9474 14.3804C16.3709 14.8951 16.0057 15.6053 15.9225 16.3737C15.8392 17.1421 16.0439 17.914 16.4968 18.5402C16.9498 19.1665 17.6189 19.6025 18.3747 19.764L22.4997 20.664C23.3431 20.8487 24.0886 21.3385 24.5928 22.0394C25.0971 22.7403 25.3246 23.6028 25.2315 24.4612C25.1385 25.3196 24.7316 26.1133 24.0889 26.6899C23.4462 27.2665 22.6131 27.5853 21.7497 27.585H19.4187C17.8947 27.585 16.5987 26.613 16.1187 25.254M20.5857 13.587V10.086M20.5857 31.086V27.588M5.99365 40.494V32.994H13.4937" stroke="#CE3503" stroke-width="2" stroke-linecap="round" stroke-linejoin="round"/>
<path d="M40.1638 17.412C40.9602 21.6576 40.3244 26.0475 38.356 29.8927C36.3877 33.7379 33.1983 36.8207 29.2884 38.6572C25.3786 40.4937 20.9696 40.9799 16.7535 40.0397C12.5374 39.0994 8.75279 36.7858 5.99378 33.462M1.83578 24.588C1.03936 20.3424 1.67521 15.9524 3.64355 12.1073C5.61189 8.26209 8.80128 5.17932 12.7111 3.34282C16.621 1.50632 21.03 1.02005 25.2461 1.96033C29.4622 2.9006 33.2468 5.2142 36.0058 8.53799" stroke="#CE3503" stroke-width="2" stroke-linecap="round" stroke-linejoin="round"/>
<path d="M36.0059 1.50598V9.00598H28.5059" stroke="#CE3503" stroke-width="2" stroke-linecap="round" stroke-linejoin="round"/>
</g>
<defs>
<clipPath id="clip0_157_67">
<rect width="42" height="42" fill="white"/>
</clipPath>
</defs>
</svg>
