<svg width="42" height="42" viewBox="0 0 42 42" fill="none" xmlns="http://www.w3.org/2000/svg">
<path d="M15.75 5.25C17.0479 5.25 18.3167 5.63488 19.3959 6.35598C20.4751 7.07708 21.3163 8.102 21.813 9.30114C22.3097 10.5003 22.4396 11.8198 22.1864 13.0928C21.9332 14.3658 21.3082 15.5351 20.3904 16.4529C19.4726 17.3707 18.3033 17.9957 17.0303 18.2489C15.7573 18.5021 14.4378 18.3722 13.2386 17.8755C12.0395 17.3788 11.0146 16.5376 10.2935 15.4584C9.57238 14.3792 9.1875 13.1104 9.1875 11.8125C9.1875 10.072 9.8789 8.40282 11.1096 7.17211C12.3403 5.9414 14.0095 5.25 15.75 5.25ZM15.75 2.625C13.9329 2.625 12.1566 3.16384 10.6457 4.17337C9.13482 5.18291 7.95724 6.6178 7.26186 8.2966C6.56648 9.97539 6.38453 11.8227 6.73904 13.6049C7.09354 15.3871 7.96856 17.0241 9.25346 18.309C10.5384 19.5939 12.1754 20.469 13.9576 20.8235C15.7398 21.178 17.5871 20.996 19.2659 20.3006C20.9447 19.6053 22.3796 18.4277 23.3891 16.9168C24.3987 15.4059 24.9375 13.6296 24.9375 11.8125C24.9375 9.37582 23.9695 7.03895 22.2465 5.31596C20.5236 3.59297 18.1867 2.625 15.75 2.625ZM28.875 39.375H26.25V32.8125C26.25 31.072 25.5586 29.4028 24.3279 28.1721C23.0972 26.9414 21.428 26.25 19.6875 26.25H11.8125C10.072 26.25 8.40282 26.9414 7.17211 28.1721C5.9414 29.4028 5.25 31.072 5.25 32.8125V39.375H2.625V32.8125C2.625 30.3758 3.59297 28.0389 5.31596 26.316C7.03895 24.593 9.37582 23.625 11.8125 23.625H19.6875C22.1242 23.625 24.4611 24.593 26.184 26.316C27.907 28.0389 28.875 30.3758 28.875 32.8125V39.375ZM28.875 5.25H42V7.875H28.875V5.25ZM28.875 11.8125H42V14.4375H28.875V11.8125ZM28.875 18.375H38.0625V21H28.875V18.375Z" fill="#CE3404"/>
</svg>
