<svg width="42" height="42" viewBox="0 0 42 42" fill="none" xmlns="http://www.w3.org/2000/svg">
<path d="M21 36.75H39.375V39.375H21V36.75ZM35.4375 34.125H24.9375C23.4898 34.125 22.3125 32.9477 22.3125 31.5V24.9375C22.3125 23.4898 23.4898 22.3125 24.9375 22.3125H35.4375C36.8852 22.3125 38.0625 23.4898 38.0625 24.9375V31.5C38.0625 32.9477 36.8852 34.125 35.4375 34.125ZM24.9375 24.9375V31.5H35.4375V24.9375H24.9375ZM19.6875 30.1875H13.125C11.6773 30.1875 10.5 29.0102 10.5 27.5625V22.3125H13.125V27.5625H19.6875V30.1875ZM2.625 17.0625H21V19.6875H2.625V17.0625ZM17.0625 14.4375H6.5625C5.11481 14.4375 3.9375 13.2602 3.9375 11.8125V5.25C3.9375 3.80231 5.11481 2.625 6.5625 2.625H17.0625C18.5102 2.625 19.6875 3.80231 19.6875 5.25V11.8125C19.6875 13.2602 18.5102 14.4375 17.0625 14.4375ZM6.5625 5.25V11.8125H17.0625V5.25H6.5625Z" fill="#CE3404"/>
</svg>
