<svg width="42" height="42" viewBox="0 0 42 42" fill="none" xmlns="http://www.w3.org/2000/svg">
<path d="M23.625 34.125H34.125V36.75H23.625V34.125ZM23.625 28.875H39.375V31.5H23.625V28.875ZM23.625 23.625H39.375V26.25H23.625V23.625Z" fill="#CE3404"/>
<path d="M26.9707 14.7223L21.0002 2.625L15.0296 14.7223L1.68018 16.6622L11.3402 26.0794L9.05905 39.375L18.3752 34.4781V31.5118L12.5464 34.5765L13.9271 26.523L14.1607 25.1619L13.1724 24.1999L7.3213 18.4944L15.4076 17.3197L16.7726 17.1216L17.3842 15.8839L21.0002 8.55619L24.6161 15.8839L25.2277 17.1216L26.5927 17.3197L36.3761 18.7438L36.7502 16.1438L26.9707 14.7223Z" fill="#CE3404"/>
</svg>
