<svg width="42" height="42" viewBox="0 0 42 42" fill="none" xmlns="http://www.w3.org/2000/svg">
<path d="M19.2362 25.9088C20.9953 24.7377 22.3308 23.0316 23.0452 21.0428C23.7597 19.054 23.8151 16.888 23.2034 14.8652C22.5917 12.8425 21.3452 11.0703 19.6484 9.81068C17.9515 8.55111 15.8944 7.87103 13.7811 7.87103C11.6679 7.87103 9.61072 8.55111 7.91387 9.81068C6.21702 11.0703 4.97057 12.8425 4.35883 14.8652C3.74709 16.888 3.80255 19.054 4.517 21.0428C5.23145 23.0316 6.56696 24.7377 8.32604 25.9088C5.14403 27.0816 2.42653 29.2518 0.579008 32.0956C0.481909 32.2399 0.414464 32.4021 0.380593 32.5727C0.346722 32.7433 0.347102 32.9189 0.381709 33.0894C0.416316 33.2599 0.484461 33.4217 0.582182 33.5656C0.679904 33.7095 0.805252 33.8326 0.950942 33.9276C1.09663 34.0226 1.25976 34.0877 1.43083 34.1192C1.60191 34.1506 1.77753 34.1477 1.94748 34.1106C2.11743 34.0736 2.27832 34.0032 2.4208 33.9034C2.56329 33.8036 2.68452 33.6765 2.77745 33.5295C3.96918 31.6966 5.59991 30.1903 7.52154 29.1477C9.44317 28.105 11.5948 27.5588 13.7811 27.5588C15.9674 27.5588 18.1191 28.105 20.0407 29.1477C21.9623 30.1903 23.5931 31.6966 24.7848 33.5295C24.9773 33.8156 25.2747 34.0145 25.6126 34.0831C25.9506 34.1517 26.3019 34.0845 26.5908 33.8961C26.8796 33.7077 27.0827 33.4132 27.1561 33.0763C27.2296 32.7394 27.1675 32.3871 26.9832 32.0956C25.1357 29.2518 22.4182 27.0816 19.2362 25.9088ZM6.56237 17.7188C6.56237 16.291 6.98574 14.8954 7.77895 13.7083C8.57215 12.5211 9.69957 11.5959 11.0186 11.0495C12.3377 10.5032 13.7891 10.3602 15.1894 10.6387C16.5897 10.9173 17.876 11.6048 18.8855 12.6143C19.8951 13.6239 20.5826 14.9102 20.8612 16.3105C21.1397 17.7108 20.9967 19.1622 20.4504 20.4813C19.904 21.8003 18.9788 22.9277 17.7916 23.7209C16.6045 24.5142 15.2089 24.9375 13.7811 24.9375C11.8673 24.9354 10.0324 24.1741 8.67909 22.8208C7.32578 21.4675 6.56454 19.6326 6.56237 17.7188ZM41.0385 33.9117C40.7469 34.1019 40.3918 34.1684 40.0512 34.0967C39.7106 34.025 39.4125 33.821 39.2223 33.5295C38.032 31.6955 36.4015 30.1886 34.4794 29.1463C32.5574 28.1041 30.405 27.5596 28.2186 27.5625C27.8705 27.5625 27.5367 27.4242 27.2905 27.1781C27.0444 26.932 26.9061 26.5981 26.9061 26.25C26.9061 25.9019 27.0444 25.5681 27.2905 25.3219C27.5367 25.0758 27.8705 24.9375 28.2186 24.9375C29.2817 24.9365 30.3314 24.7007 31.2928 24.247C32.2542 23.7933 33.1035 23.1328 33.78 22.3128C34.4566 21.4928 34.9437 20.5335 35.2065 19.5034C35.4693 18.4733 35.5014 17.3979 35.3004 16.354C35.0994 15.3101 34.6703 14.3235 34.0438 13.4646C33.4174 12.6058 32.6089 11.8959 31.6763 11.3857C30.7436 10.8755 29.7098 10.5776 28.6487 10.5133C27.5875 10.4489 26.5253 10.6198 25.5378 11.0135C25.3768 11.0831 25.2035 11.1198 25.0281 11.1212C24.8527 11.1227 24.6788 11.089 24.5167 11.0222C24.3545 10.9553 24.2074 10.8566 24.084 10.7319C23.9607 10.6072 23.8636 10.4591 23.7984 10.2962C23.7333 10.1334 23.7014 9.95913 23.7048 9.78376C23.7081 9.60839 23.7466 9.43547 23.8179 9.27522C23.8892 9.11497 23.9919 8.97063 24.1199 8.85075C24.248 8.73086 24.3987 8.63785 24.5633 8.57721C26.8232 7.67594 29.3368 7.64351 31.6192 8.48617C33.9016 9.32884 35.7911 10.9869 36.9231 13.1405C38.0552 15.2941 38.3495 17.7906 37.7495 20.1484C37.1494 22.5062 35.6975 24.5583 33.6737 25.9088C36.8557 27.0816 39.5732 29.2518 41.4207 32.0956C41.6108 32.3871 41.6774 32.7422 41.6057 33.0828C41.534 33.4234 41.33 33.7216 41.0385 33.9117Z" fill="#CD3307"/>
</svg>
