<svg width="42" height="42" viewBox="0 0 42 42" fill="none" xmlns="http://www.w3.org/2000/svg">
<path d="M35.4375 11.8125H9.1875C8.8394 11.8125 8.50556 11.6742 8.25942 11.4281C8.01328 11.1819 7.875 10.8481 7.875 10.5C7.875 10.1519 8.01328 9.81806 8.25942 9.57192C8.50556 9.32578 8.8394 9.1875 9.1875 9.1875H31.5C31.8481 9.1875 32.1819 9.04922 32.4281 8.80308C32.6742 8.55694 32.8125 8.2231 32.8125 7.875C32.8125 7.5269 32.6742 7.19306 32.4281 6.94692C32.1819 6.70078 31.8481 6.5625 31.5 6.5625H9.1875C8.14321 6.5625 7.14169 6.97734 6.40327 7.71577C5.66484 8.45419 5.25 9.45571 5.25 10.5V31.5C5.25 32.5443 5.66484 33.5458 6.40327 34.2842C7.14169 35.0227 8.14321 35.4375 9.1875 35.4375H35.4375C36.1337 35.4375 36.8014 35.1609 37.2937 34.6687C37.7859 34.1764 38.0625 33.5087 38.0625 32.8125V14.4375C38.0625 13.7413 37.7859 13.0736 37.2937 12.5813C36.8014 12.0891 36.1337 11.8125 35.4375 11.8125ZM35.4375 32.8125H9.1875C8.8394 32.8125 8.50556 32.6742 8.25942 32.4281C8.01328 32.1819 7.875 31.8481 7.875 31.5V14.2127C8.29644 14.3621 8.74037 14.4382 9.1875 14.4375H35.4375V32.8125ZM27.5625 22.9688C27.5625 22.5794 27.678 22.1987 27.8943 21.875C28.1106 21.5512 28.4181 21.2989 28.7778 21.1499C29.1376 21.0009 29.5334 20.9619 29.9153 21.0378C30.2972 21.1138 30.648 21.3013 30.9234 21.5766C31.1987 21.852 31.3862 22.2028 31.4622 22.5847C31.5381 22.9666 31.4991 23.3624 31.3501 23.7222C31.2011 24.0819 30.9488 24.3894 30.625 24.6057C30.3013 24.822 29.9206 24.9375 29.5312 24.9375C29.0091 24.9375 28.5083 24.7301 28.1391 24.3609C27.7699 23.9917 27.5625 23.4909 27.5625 22.9688Z" fill="#CE3503"/>
</svg>
